<svg id="visual" viewBox="0 0 1080 1920" width="1080" height="1920" xmlns="http://www.w3.org/2000/svg" xmlns:xlink="http://www.w3.org/1999/xlink" version="1.1"><g stroke-width="1" stroke-linejoin="bevel"><path d="M512 1033L502 863L437 1011Z" fill="#ecdfd7" stroke="#ecdfd7"></path><path d="M502 863L365 865L437 1011Z" fill="#bf6c2b" stroke="#bf6c2b"></path><path d="M512 1033L639 866L502 863Z" fill="#d5966a" stroke="#d5966a"></path><path d="M639 866L545 759L502 863Z" fill="#bf6c2b" stroke="#bf6c2b"></path><path d="M502 863L396 754L365 865Z" fill="#eeeeee" stroke="#eeeeee"></path><path d="M409 1193L580 1136L512 1033Z" fill="#e5c1aa" stroke="#e5c1aa"></path><path d="M512 1033L719 1012L639 866Z" fill="#c77a40" stroke="#c77a40"></path><path d="M365 865L296 1012L437 1011Z" fill="#ce8855" stroke="#ce8855"></path><path d="M437 1011L409 1193L512 1033Z" fill="#dba47f" stroke="#dba47f"></path><path d="M545 759L396 754L502 863Z" fill="#d5966a" stroke="#d5966a"></path><path d="M365 865L233 875L296 1012Z" fill="#e5c1aa" stroke="#e5c1aa"></path><path d="M580 1136L719 1012L512 1033Z" fill="#e0b394" stroke="#e0b394"></path><path d="M296 1012L409 1193L437 1011Z" fill="#ecdfd7" stroke="#ecdfd7"></path><path d="M559 1277L641 1164L580 1136Z" fill="#dba47f" stroke="#dba47f"></path><path d="M580 1136L641 1164L719 1012Z" fill="#eeeeee" stroke="#eeeeee"></path><path d="M824 886L695 763L639 866Z" fill="#eeeeee" stroke="#eeeeee"></path><path d="M639 866L695 763L545 759Z" fill="#e9d0c1" stroke="#e9d0c1"></path><path d="M545 759L534 661L396 754Z" fill="#ecdfd7" stroke="#ecdfd7"></path><path d="M256 741L233 875L365 865Z" fill="#ce8855" stroke="#ce8855"></path><path d="M828 1185L766 1001L719 1012Z" fill="#ecdfd7" stroke="#ecdfd7"></path><path d="M719 1012L766 1001L639 866Z" fill="#eeeeee" stroke="#eeeeee"></path><path d="M709 661L534 661L545 759Z" fill="#ecdfd7" stroke="#ecdfd7"></path><path d="M284 1287L438 1249L409 1193Z" fill="#b65e11" stroke="#b65e11"></path><path d="M409 1193L438 1249L580 1136Z" fill="#e9d0c1" stroke="#e9d0c1"></path><path d="M361 620L256 741L396 754Z" fill="#e5c1aa" stroke="#e5c1aa"></path><path d="M396 754L256 741L365 865Z" fill="#c77a40" stroke="#c77a40"></path><path d="M233 875L175 1017L296 1012Z" fill="#e9d0c1" stroke="#e9d0c1"></path><path d="M296 1012L246 1191L409 1193Z" fill="#bf6c2b" stroke="#bf6c2b"></path><path d="M114 889L175 1017L233 875Z" fill="#ecdfd7" stroke="#ecdfd7"></path><path d="M766 1001L824 886L639 866Z" fill="#ecdfd7" stroke="#ecdfd7"></path><path d="M438 1249L559 1277L580 1136Z" fill="#e9d0c1" stroke="#e9d0c1"></path><path d="M641 1164L828 1185L719 1012Z" fill="#e5c1aa" stroke="#e5c1aa"></path><path d="M175 1017L246 1191L296 1012Z" fill="#d5966a" stroke="#d5966a"></path><path d="M534 661L361 620L396 754Z" fill="#dba47f" stroke="#dba47f"></path><path d="M778 672L709 661L695 763Z" fill="#e5c1aa" stroke="#e5c1aa"></path><path d="M695 763L709 661L545 759Z" fill="#e0b394" stroke="#e0b394"></path><path d="M534 661L395 489L361 620Z" fill="#bf6c2b" stroke="#bf6c2b"></path><path d="M824 886L837 808L695 763Z" fill="#e9d0c1" stroke="#e9d0c1"></path><path d="M559 1277L669 1292L641 1164Z" fill="#eeeeee" stroke="#eeeeee"></path><path d="M766 1001L900 1040L824 886Z" fill="#e5c1aa" stroke="#e5c1aa"></path><path d="M147 729L233 875L256 741Z" fill="#e9d0c1" stroke="#e9d0c1"></path><path d="M147 729L114 889L233 875Z" fill="#d5966a" stroke="#d5966a"></path><path d="M175 1017L93 1133L246 1191Z" fill="#b65e11" stroke="#b65e11"></path><path d="M837 808L778 672L695 763Z" fill="#ecdfd7" stroke="#ecdfd7"></path><path d="M118 1303L284 1287L246 1191Z" fill="#ce8855" stroke="#ce8855"></path><path d="M246 1191L284 1287L409 1193Z" fill="#eeeeee" stroke="#eeeeee"></path><path d="M438 1249L565 1394L559 1277Z" fill="#e0b394" stroke="#e0b394"></path><path d="M559 1277L565 1394L669 1292Z" fill="#e5c1aa" stroke="#e5c1aa"></path><path d="M361 620L257 620L256 741Z" fill="#e9d0c1" stroke="#e9d0c1"></path><path d="M802 1240L828 1185L641 1164Z" fill="#e5c1aa" stroke="#e5c1aa"></path><path d="M824 886L935 861L837 808Z" fill="#c77a40" stroke="#c77a40"></path><path d="M257 620L147 729L256 741Z" fill="#ecdfd7" stroke="#ecdfd7"></path><path d="M828 1185L900 1040L766 1001Z" fill="#e9d0c1" stroke="#e9d0c1"></path><path d="M711 512L574 540L709 661Z" fill="#c77a40" stroke="#c77a40"></path><path d="M709 661L574 540L534 661Z" fill="#bf6c2b" stroke="#bf6c2b"></path><path d="M361 620L303 494L257 620Z" fill="#bf6c2b" stroke="#bf6c2b"></path><path d="M669 1292L802 1240L641 1164Z" fill="#d5966a" stroke="#d5966a"></path><path d="M828 1185L939 1184L900 1040Z" fill="#dba47f" stroke="#dba47f"></path><path d="M0 1054L93 1133L175 1017Z" fill="#c77a40" stroke="#c77a40"></path><path d="M900 1040L935 861L824 886Z" fill="#e0b394" stroke="#e0b394"></path><path d="M837 808L959 757L778 672Z" fill="#dba47f" stroke="#dba47f"></path><path d="M372 1409L565 1394L438 1249Z" fill="#e9d0c1" stroke="#e9d0c1"></path><path d="M669 1292L697 1399L802 1240Z" fill="#d5966a" stroke="#d5966a"></path><path d="M574 540L395 489L534 661Z" fill="#ce8855" stroke="#ce8855"></path><path d="M229 1431L372 1409L284 1287Z" fill="#bf6c2b" stroke="#bf6c2b"></path><path d="M284 1287L372 1409L438 1249Z" fill="#c77a40" stroke="#c77a40"></path><path d="M778 672L711 512L709 661Z" fill="#e0b394" stroke="#e0b394"></path><path d="M574 540L569 384L395 489Z" fill="#b65e11" stroke="#b65e11"></path><path d="M828 467L711 512L778 672Z" fill="#c77a40" stroke="#c77a40"></path><path d="M97 538L90 672L257 620Z" fill="#ce8855" stroke="#ce8855"></path><path d="M257 620L90 672L147 729Z" fill="#ecdfd7" stroke="#ecdfd7"></path><path d="M147 729L0 749L114 889Z" fill="#c77a40" stroke="#c77a40"></path><path d="M114 889L0 929L175 1017Z" fill="#e9d0c1" stroke="#e9d0c1"></path><path d="M646 1495L697 1399L565 1394Z" fill="#d5966a" stroke="#d5966a"></path><path d="M565 1394L697 1399L669 1292Z" fill="#e9d0c1" stroke="#e9d0c1"></path><path d="M395 489L303 494L361 620Z" fill="#b65e11" stroke="#b65e11"></path><path d="M0 749L0 929L114 889Z" fill="#ecdfd7" stroke="#ecdfd7"></path><path d="M1080 795L959 757L935 861Z" fill="#ce8855" stroke="#ce8855"></path><path d="M935 861L959 757L837 808Z" fill="#e0b394" stroke="#e0b394"></path><path d="M952 1268L828 1185L802 1240Z" fill="#c77a40" stroke="#c77a40"></path><path d="M952 1268L939 1184L828 1185Z" fill="#e9d0c1" stroke="#e9d0c1"></path><path d="M1080 1062L1080 866L935 861Z" fill="#ce8855" stroke="#ce8855"></path><path d="M0 929L0 1054L175 1017Z" fill="#e5c1aa" stroke="#e5c1aa"></path><path d="M93 1133L118 1303L246 1191Z" fill="#ce8855" stroke="#ce8855"></path><path d="M0 1322L118 1303L93 1133Z" fill="#bf6c2b" stroke="#bf6c2b"></path><path d="M0 1054L0 1107L93 1133Z" fill="#bf6c2b" stroke="#bf6c2b"></path><path d="M90 672L0 749L147 729Z" fill="#ecdfd7" stroke="#ecdfd7"></path><path d="M118 1303L229 1431L284 1287Z" fill="#bf6c2b" stroke="#bf6c2b"></path><path d="M550 1553L646 1495L565 1394Z" fill="#dba47f" stroke="#dba47f"></path><path d="M959 757L963 650L778 672Z" fill="#c77a40" stroke="#c77a40"></path><path d="M933 1362L952 1268L802 1240Z" fill="#eeeeee" stroke="#eeeeee"></path><path d="M1080 1062L935 861L900 1040Z" fill="#ecdfd7" stroke="#ecdfd7"></path><path d="M959 757L1080 795L963 650Z" fill="#d5966a" stroke="#d5966a"></path><path d="M380 1532L565 1394L372 1409Z" fill="#e9d0c1" stroke="#e9d0c1"></path><path d="M697 1399L832 1443L802 1240Z" fill="#eeeeee" stroke="#eeeeee"></path><path d="M97 538L0 672L90 672Z" fill="#e9d0c1" stroke="#e9d0c1"></path><path d="M90 672L0 672L0 749Z" fill="#e5c1aa" stroke="#e5c1aa"></path><path d="M673 392L574 540L711 512Z" fill="#e9d0c1" stroke="#e9d0c1"></path><path d="M673 392L569 384L574 540Z" fill="#e9d0c1" stroke="#e9d0c1"></path><path d="M395 489L260 386L303 494Z" fill="#d5966a" stroke="#d5966a"></path><path d="M303 494L97 538L257 620Z" fill="#d5966a" stroke="#d5966a"></path><path d="M260 386L97 538L303 494Z" fill="#ce8855" stroke="#ce8855"></path><path d="M828 467L673 392L711 512Z" fill="#c77a40" stroke="#c77a40"></path><path d="M963 650L828 467L778 672Z" fill="#bf6c2b" stroke="#bf6c2b"></path><path d="M1080 1062L900 1040L1080 1107Z" fill="#dba47f" stroke="#dba47f"></path><path d="M238 1511L380 1532L372 1409Z" fill="#e9d0c1" stroke="#e9d0c1"></path><path d="M1080 1107L900 1040L939 1184Z" fill="#dba47f" stroke="#dba47f"></path><path d="M819 1526L832 1443L697 1399Z" fill="#e0b394" stroke="#e0b394"></path><path d="M118 1303L146 1435L229 1431Z" fill="#ce8855" stroke="#ce8855"></path><path d="M229 1431L238 1511L372 1409Z" fill="#c77a40" stroke="#c77a40"></path><path d="M0 1419L146 1435L118 1303Z" fill="#eeeeee" stroke="#eeeeee"></path><path d="M832 1443L933 1362L802 1240Z" fill="#dba47f" stroke="#dba47f"></path><path d="M1080 1279L1080 1107L939 1184Z" fill="#d5966a" stroke="#d5966a"></path><path d="M1080 866L1080 795L935 861Z" fill="#ce8855" stroke="#ce8855"></path><path d="M963 650L967 471L828 467Z" fill="#ce8855" stroke="#ce8855"></path><path d="M1080 1279L939 1184L952 1268Z" fill="#ecdfd7" stroke="#ecdfd7"></path><path d="M380 1532L550 1553L565 1394Z" fill="#dba47f" stroke="#dba47f"></path><path d="M646 1495L819 1526L697 1399Z" fill="#dba47f" stroke="#dba47f"></path><path d="M414 341L260 386L395 489Z" fill="#e0b394" stroke="#e0b394"></path><path d="M569 384L414 341L395 489Z" fill="#d5966a" stroke="#d5966a"></path><path d="M511 236L414 341L569 384Z" fill="#e9d0c1" stroke="#e9d0c1"></path><path d="M170 1494L238 1511L229 1431Z" fill="#e0b394" stroke="#e0b394"></path><path d="M0 1107L0 1322L93 1133Z" fill="#bf6c2b" stroke="#bf6c2b"></path><path d="M146 1435L170 1494L229 1431Z" fill="#d5966a" stroke="#d5966a"></path><path d="M0 1533L170 1494L146 1435Z" fill="#ecdfd7" stroke="#ecdfd7"></path><path d="M832 1443L932 1526L933 1362Z" fill="#eeeeee" stroke="#eeeeee"></path><path d="M649 1648L819 1526L646 1495Z" fill="#ecdfd7" stroke="#ecdfd7"></path><path d="M1080 545L967 471L963 650Z" fill="#ce8855" stroke="#ce8855"></path><path d="M802 230L638 293L673 392Z" fill="#dba47f" stroke="#dba47f"></path><path d="M848 347L673 392L828 467Z" fill="#e9d0c1" stroke="#e9d0c1"></path><path d="M673 392L638 293L569 384Z" fill="#d5966a" stroke="#d5966a"></path><path d="M1080 1373L952 1268L933 1362Z" fill="#e5c1aa" stroke="#e5c1aa"></path><path d="M1080 1373L1080 1279L952 1268Z" fill="#ce8855" stroke="#ce8855"></path><path d="M380 1532L506 1629L550 1553Z" fill="#e5c1aa" stroke="#e5c1aa"></path><path d="M550 1553L649 1648L646 1495Z" fill="#e9d0c1" stroke="#e9d0c1"></path><path d="M432 1641L506 1629L380 1532Z" fill="#eeeeee" stroke="#eeeeee"></path><path d="M432 1641L380 1532L229 1668Z" fill="#dba47f" stroke="#dba47f"></path><path d="M1080 795L1080 599L963 650Z" fill="#bf6c2b" stroke="#bf6c2b"></path><path d="M0 419L0 479L97 538Z" fill="#c77a40" stroke="#c77a40"></path><path d="M97 538L0 479L0 672Z" fill="#c77a40" stroke="#c77a40"></path><path d="M0 1322L0 1419L118 1303Z" fill="#bf6c2b" stroke="#bf6c2b"></path><path d="M414 341L272 292L260 386Z" fill="#ce8855" stroke="#ce8855"></path><path d="M260 386L131 356L97 538Z" fill="#dba47f" stroke="#dba47f"></path><path d="M424 234L272 292L414 341Z" fill="#ce8855" stroke="#ce8855"></path><path d="M229 1668L238 1511L170 1494Z" fill="#ecdfd7" stroke="#ecdfd7"></path><path d="M229 1668L380 1532L238 1511Z" fill="#e0b394" stroke="#e0b394"></path><path d="M272 292L131 356L260 386Z" fill="#e9d0c1" stroke="#e9d0c1"></path><path d="M968 416L848 347L828 467Z" fill="#e0b394" stroke="#e0b394"></path><path d="M1080 599L1080 545L963 650Z" fill="#d5966a" stroke="#d5966a"></path><path d="M967 471L968 416L828 467Z" fill="#e9d0c1" stroke="#e9d0c1"></path><path d="M1080 352L968 416L967 471Z" fill="#eeeeee" stroke="#eeeeee"></path><path d="M517 125L511 236L647 135Z" fill="#e9d0c1" stroke="#e9d0c1"></path><path d="M638 293L511 236L569 384Z" fill="#e5c1aa" stroke="#e5c1aa"></path><path d="M676 1802L649 1648L577 1827Z" fill="#c77a40" stroke="#c77a40"></path><path d="M506 1629L649 1648L550 1553Z" fill="#ce8855" stroke="#ce8855"></path><path d="M511 236L424 234L414 341Z" fill="#eeeeee" stroke="#eeeeee"></path><path d="M932 1526L832 1443L819 1526Z" fill="#d5966a" stroke="#d5966a"></path><path d="M1080 1499L1080 1373L933 1362Z" fill="#e5c1aa" stroke="#e5c1aa"></path><path d="M957 1649L932 1526L819 1526Z" fill="#e5c1aa" stroke="#e5c1aa"></path><path d="M131 356L0 419L97 538Z" fill="#c77a40" stroke="#c77a40"></path><path d="M0 1419L0 1533L146 1435Z" fill="#c77a40" stroke="#c77a40"></path><path d="M143 1684L229 1668L170 1494Z" fill="#d5966a" stroke="#d5966a"></path><path d="M676 1802L808 1679L649 1648Z" fill="#ce8855" stroke="#ce8855"></path><path d="M272 292L119 270L131 356Z" fill="#eeeeee" stroke="#eeeeee"></path><path d="M131 356L0 276L0 419Z" fill="#c77a40" stroke="#c77a40"></path><path d="M141 127L119 270L272 292Z" fill="#ecdfd7" stroke="#ecdfd7"></path><path d="M848 347L802 230L673 392Z" fill="#eeeeee" stroke="#eeeeee"></path><path d="M517 125L363 153L424 234Z" fill="#dba47f" stroke="#dba47f"></path><path d="M954 281L802 230L848 347Z" fill="#c77a40" stroke="#c77a40"></path><path d="M426 1772L506 1629L432 1641Z" fill="#e9d0c1" stroke="#e9d0c1"></path><path d="M649 1648L808 1679L819 1526Z" fill="#bf6c2b" stroke="#bf6c2b"></path><path d="M932 1526L1080 1499L933 1362Z" fill="#bf6c2b" stroke="#bf6c2b"></path><path d="M1080 1620L1080 1499L932 1526Z" fill="#bf6c2b" stroke="#bf6c2b"></path><path d="M517 125L424 234L511 236Z" fill="#b65e11" stroke="#b65e11"></path><path d="M424 234L363 153L272 292Z" fill="#e9d0c1" stroke="#e9d0c1"></path><path d="M1080 352L954 281L968 416Z" fill="#eeeeee" stroke="#eeeeee"></path><path d="M968 416L954 281L848 347Z" fill="#bf6c2b" stroke="#bf6c2b"></path><path d="M0 1627L143 1684L170 1494Z" fill="#ce8855" stroke="#ce8855"></path><path d="M262 1787L426 1772L432 1641Z" fill="#e5c1aa" stroke="#e5c1aa"></path><path d="M647 135L638 293L802 230Z" fill="#ecdfd7" stroke="#ecdfd7"></path><path d="M647 135L511 236L638 293Z" fill="#dba47f" stroke="#dba47f"></path><path d="M262 1787L432 1641L229 1668Z" fill="#e5c1aa" stroke="#e5c1aa"></path><path d="M832 165L647 135L802 230Z" fill="#d5966a" stroke="#d5966a"></path><path d="M1080 545L1080 352L967 471Z" fill="#c77a40" stroke="#c77a40"></path><path d="M141 127L0 276L119 270Z" fill="#e0b394" stroke="#e0b394"></path><path d="M119 270L0 276L131 356Z" fill="#e5c1aa" stroke="#e5c1aa"></path><path d="M808 1679L957 1649L819 1526Z" fill="#ecdfd7" stroke="#ecdfd7"></path><path d="M966 1780L957 1649L808 1679Z" fill="#e0b394" stroke="#e0b394"></path><path d="M0 1533L0 1627L170 1494Z" fill="#d5966a" stroke="#d5966a"></path><path d="M954 281L832 165L802 230Z" fill="#ecdfd7" stroke="#ecdfd7"></path><path d="M962 108L832 165L954 281Z" fill="#dba47f" stroke="#dba47f"></path><path d="M143 1684L262 1787L229 1668Z" fill="#bf6c2b" stroke="#bf6c2b"></path><path d="M110 1761L262 1787L143 1684Z" fill="#d5966a" stroke="#d5966a"></path><path d="M577 1827L506 1629L426 1772Z" fill="#e0b394" stroke="#e0b394"></path><path d="M577 1827L649 1648L506 1629Z" fill="#e0b394" stroke="#e0b394"></path><path d="M1080 352L1080 292L954 281Z" fill="#ecdfd7" stroke="#ecdfd7"></path><path d="M546 1920L577 1827L422 1920Z" fill="#e9d0c1" stroke="#e9d0c1"></path><path d="M1080 1749L1080 1620L957 1649Z" fill="#b65e11" stroke="#b65e11"></path><path d="M957 1649L1080 1620L932 1526Z" fill="#b65e11" stroke="#b65e11"></path><path d="M252 83L272 292L363 153Z" fill="#ce8855" stroke="#ce8855"></path><path d="M252 83L141 127L272 292Z" fill="#e9d0c1" stroke="#e9d0c1"></path><path d="M408 0L252 83L363 153Z" fill="#e9d0c1" stroke="#e9d0c1"></path><path d="M408 0L363 153L517 125Z" fill="#eeeeee" stroke="#eeeeee"></path><path d="M0 1627L110 1761L143 1684Z" fill="#eeeeee" stroke="#eeeeee"></path><path d="M782 1920L840 1816L676 1802Z" fill="#b65e11" stroke="#b65e11"></path><path d="M676 1802L840 1816L808 1679Z" fill="#d5966a" stroke="#d5966a"></path><path d="M660 0L584 0L647 135Z" fill="#bf6c2b" stroke="#bf6c2b"></path><path d="M647 135L584 0L517 125Z" fill="#e9d0c1" stroke="#e9d0c1"></path><path d="M660 0L647 135L793 0Z" fill="#d5966a" stroke="#d5966a"></path><path d="M584 0L408 0L517 125Z" fill="#ce8855" stroke="#ce8855"></path><path d="M252 83L175 0L141 127Z" fill="#c77a40" stroke="#c77a40"></path><path d="M840 1816L966 1780L808 1679Z" fill="#d5966a" stroke="#d5966a"></path><path d="M1080 292L962 108L954 281Z" fill="#eeeeee" stroke="#eeeeee"></path><path d="M793 0L647 135L832 165Z" fill="#b65e11" stroke="#b65e11"></path><path d="M577 1827L652 1920L676 1802Z" fill="#ecdfd7" stroke="#ecdfd7"></path><path d="M840 1816L969 1920L966 1780Z" fill="#e9d0c1" stroke="#e9d0c1"></path><path d="M422 1920L577 1827L426 1772Z" fill="#bf6c2b" stroke="#bf6c2b"></path><path d="M422 1920L426 1772L284 1920Z" fill="#bf6c2b" stroke="#bf6c2b"></path><path d="M284 1920L426 1772L262 1787Z" fill="#e5c1aa" stroke="#e5c1aa"></path><path d="M546 1920L652 1920L577 1827Z" fill="#bf6c2b" stroke="#bf6c2b"></path><path d="M408 0L232 0L252 83Z" fill="#d5966a" stroke="#d5966a"></path><path d="M141 127L0 83L0 276Z" fill="#ecdfd7" stroke="#ecdfd7"></path><path d="M0 1627L0 1804L110 1761Z" fill="#ecdfd7" stroke="#ecdfd7"></path><path d="M93 1920L284 1920L262 1787Z" fill="#bf6c2b" stroke="#bf6c2b"></path><path d="M1080 1920L1080 1749L966 1780Z" fill="#ce8855" stroke="#ce8855"></path><path d="M966 1780L1080 1749L957 1649Z" fill="#e5c1aa" stroke="#e5c1aa"></path><path d="M938 0L793 0L832 165Z" fill="#ecdfd7" stroke="#ecdfd7"></path><path d="M93 1920L262 1787L110 1761Z" fill="#eeeeee" stroke="#eeeeee"></path><path d="M175 0L0 83L141 127Z" fill="#ecdfd7" stroke="#ecdfd7"></path><path d="M232 0L175 0L252 83Z" fill="#e9d0c1" stroke="#e9d0c1"></path><path d="M652 1920L782 1920L676 1802Z" fill="#e0b394" stroke="#e0b394"></path><path d="M1080 292L1080 83L962 108Z" fill="#e5c1aa" stroke="#e5c1aa"></path><path d="M962 108L938 0L832 165Z" fill="#eeeeee" stroke="#eeeeee"></path><path d="M1080 0L938 0L962 108Z" fill="#e9d0c1" stroke="#e9d0c1"></path><path d="M0 1804L93 1920L110 1761Z" fill="#ecdfd7" stroke="#ecdfd7"></path><path d="M175 0L0 0L0 83Z" fill="#ce8855" stroke="#ce8855"></path><path d="M782 1920L969 1920L840 1816Z" fill="#ecdfd7" stroke="#ecdfd7"></path><path d="M0 1804L0 1920L93 1920Z" fill="#eeeeee" stroke="#eeeeee"></path><path d="M1080 83L1080 0L962 108Z" fill="#ce8855" stroke="#ce8855"></path><path d="M969 1920L1080 1920L966 1780Z" fill="#dba47f" stroke="#dba47f"></path></g></svg>