<svg version="1.1" id="Layer_1" xmlns="http://www.w3.org/2000/svg" xmlns:xlink="http://www.w3.org/1999/xlink" x="0px" y="0px"
	 width="100%" viewBox="0 0 1062 1062" enable-background="new 0 0 1062 1062" xml:space="preserve">
<path fill="#B65E11" opacity="1.000000" stroke="none" 
	d="
M530.000000,0.999998 
	C538.020935,1.000000 546.041809,1.000000 554.207642,1.361257 
	C555.041504,2.127085 555.703247,2.826112 556.423584,2.892848 
	C571.653870,4.303835 586.939880,5.245743 602.111755,7.116352 
	C615.566284,8.775230 629.085083,10.669723 642.235535,13.861200 
	C661.642334,18.571062 680.950989,23.903334 699.921265,30.129103 
	C717.208984,35.802704 734.218628,42.492073 750.922363,49.723473 
	C764.207520,55.474918 776.638428,63.174778 789.820984,69.194061 
	C809.014343,77.957878 825.614075,90.746956 842.774597,102.584473 
	C854.634766,110.765755 865.594910,120.345848 876.419739,129.909271 
	C888.923767,140.956268 901.111938,152.397232 912.904114,164.199844 
	C919.915955,171.217819 926.198181,179.031540 932.285339,186.892548 
	C944.404114,202.543030 956.657410,218.128525 967.951965,234.368958 
	C984.643921,258.370422 998.612488,283.999390 1011.204834,310.399536 
	C1021.904358,332.831207 1028.789307,356.580353 1035.888916,380.240875 
	C1039.526367,392.363007 1042.066162,404.820190 1044.938110,417.164124 
	C1046.778564,425.074921 1048.636963,433.004730 1049.916138,441.017212 
	C1051.590454,451.505951 1052.948120,462.060150 1053.996094,472.630402 
	C1055.537720,488.179779 1057.426147,503.751099 1057.786499,519.344971 
	C1058.126099,534.029724 1056.973145,548.776794 1055.929077,563.457458 
	C1054.998535,576.542114 1054.219727,589.745483 1051.766479,602.589478 
	C1047.709839,623.826965 1042.724121,644.908813 1037.461304,665.888489 
	C1031.162964,690.995850 1023.206177,715.549316 1012.524597,739.251770 
	C1000.031433,766.973755 986.282837,793.960083 969.298462,819.194824 
	C961.537598,830.725525 953.378845,842.013794 944.912048,853.036926 
	C935.917969,864.746521 926.766907,876.390808 916.903931,887.362000 
	C907.391846,897.942871 897.237610,908.017029 886.714294,917.598633 
	C876.154480,927.213257 865.069336,936.310669 853.709167,944.971924 
	C839.141357,956.078857 824.314270,966.887817 809.125244,977.122192 
	C799.433472,983.652588 788.916382,988.967957 778.692322,994.690430 
	C776.596924,995.863281 774.658142,996.313293 773.904724,992.614685 
	C771.860596,982.578979 769.826538,972.498962 766.944946,962.684265 
	C758.889343,935.247131 751.725708,907.501587 740.102356,881.231934 
	C726.450806,850.378235 713.078918,819.397888 699.106567,788.690491 
	C693.365845,776.073914 686.538574,763.937195 679.914551,751.740234 
	C668.777161,731.232727 657.551147,710.770081 646.065369,690.456543 
	C641.360779,682.135925 638.195129,673.819946 638.872314,663.939087 
	C640.003235,647.437866 639.998657,630.859131 641.112244,614.356201 
	C641.860229,603.271484 643.563171,592.239136 645.197632,581.236572 
	C645.521301,579.058228 647.044678,576.610291 648.754517,575.156860 
	C661.906921,563.976868 675.223999,552.990051 688.526123,541.987000 
	C697.760071,534.348938 706.610901,526.140503 716.446899,519.369202 
	C725.402100,513.204285 735.680847,510.447693 746.646301,514.960754 
	C748.262146,515.625793 750.169983,516.062134 751.884888,515.917542 
	C757.428650,515.450195 762.955750,514.738953 768.470459,513.983765 
	C783.841614,511.878876 797.731079,505.756592 811.231140,498.411560 
	C826.293762,490.216461 838.290283,478.526978 848.890198,465.402435 
	C856.090881,456.486633 861.236755,446.436981 860.035706,434.304688 
	C858.998779,423.830750 857.638428,413.371490 857.087952,402.870758 
	C856.209473,386.112091 852.338257,370.282196 844.166748,355.577148 
	C840.138306,348.327850 835.530579,341.345001 832.151123,333.808380 
	C829.523804,327.949005 828.441772,321.404114 826.586426,315.189728 
	C822.121155,300.233459 817.182190,285.399353 813.355957,270.282684 
	C812.140625,265.480896 810.409668,262.154785 806.316284,259.834534 
	C789.054260,250.049820 770.907349,242.624496 751.303284,238.998093 
	C743.373169,237.531158 735.604553,237.118118 728.584534,241.972015 
	C713.825439,252.177017 706.975769,268.072388 712.507446,285.631989 
	C718.153870,303.555664 724.764709,308.642822 740.729065,309.622803 
	C749.770020,310.177795 756.175232,313.966492 761.865540,319.558197 
	C773.822754,331.308136 776.857117,346.996124 777.773438,362.702606 
	C778.885742,381.770477 776.243774,400.688354 771.412231,419.237579 
	C770.782104,421.656525 770.717468,424.222748 770.363159,426.932556 
	C769.404663,426.493256 768.995117,426.434967 768.827759,426.202423 
	C768.456360,425.686249 768.108276,425.113007 767.921509,424.510101 
	C765.380798,416.306152 759.502686,410.908173 752.403748,406.849121 
	C733.139343,395.834015 714.177795,384.160583 694.276978,374.422089 
	C672.951416,363.986328 649.854736,359.035797 625.977478,359.121033 
	C616.944336,359.153259 607.915405,360.336670 598.884460,360.993408 
	C584.364258,362.049316 570.438049,365.846741 557.833740,372.838043 
	C547.612183,378.507721 538.489380,386.135468 528.748657,392.701019 
	C518.381897,399.688507 521.372070,399.950562 511.634827,393.262421 
	C502.751068,387.160431 494.208679,380.451813 484.872925,375.140625 
	C466.357758,364.607208 445.795685,360.293274 424.826935,359.212891 
	C399.131653,357.888947 373.644684,358.642731 348.793182,367.756714 
	C321.718933,377.685822 299.281830,393.717346 279.964630,414.643433 
	C277.837646,416.947601 276.261139,419.759857 274.429321,422.336487 
	C273.988770,422.213989 273.548248,422.091461 273.107727,421.968964 
	C272.738281,419.984650 272.205200,418.013947 272.038879,416.012787 
	C271.805267,413.202515 272.697296,409.978790 271.614807,407.615936 
	C267.517181,398.671661 268.817841,389.088165 268.304962,379.897980 
	C267.674377,368.598572 269.434143,357.178345 269.930084,345.800323 
	C270.569183,331.137207 278.520325,320.481903 289.183258,311.750793 
	C292.547882,308.995758 297.689880,307.886963 302.196625,307.208710 
	C306.158203,306.612518 310.363770,307.844666 314.470428,307.963684 
	C323.802460,308.234131 330.316772,303.466888 334.651001,295.665588 
	C339.054504,287.739594 340.620544,278.994385 339.960968,270.035431 
	C338.447845,249.483322 324.769653,231.232956 299.104034,236.214066 
	C280.358795,239.852097 262.152039,245.575287 245.828049,256.046295 
	C241.714752,258.684814 237.359360,260.877625 236.000534,266.312714 
	C233.240875,277.350830 230.350174,288.361176 227.245972,299.307098 
	C221.401352,319.916107 212.718445,339.402130 203.779831,358.818329 
	C200.411575,366.134766 197.918854,374.001556 196.141235,381.869202 
	C193.305145,394.421631 191.347549,407.175293 189.124496,419.862396 
	C187.997452,426.294586 185.939987,432.844330 186.361130,439.204651 
	C187.081497,450.083435 192.648636,459.412170 199.949982,467.297699 
	C215.621246,484.222870 234.383575,496.777283 255.445724,506.239075 
	C273.517578,514.357605 291.703644,517.706543 311.180756,512.159912 
	C319.968536,509.657349 328.781830,510.072235 336.545319,515.915771 
	C348.574280,524.969727 361.223907,533.330688 372.423706,543.316528 
	C383.019958,552.764160 392.314484,563.726257 401.735626,574.415283 
	C406.788757,580.148499 412.273743,586.137451 415.143280,593.020203 
	C420.378448,605.577026 424.308411,618.751709 427.840515,631.921448 
	C430.616333,642.271240 432.594666,652.933167 433.769806,663.584106 
	C434.764252,672.597046 437.114441,681.921265 433.007141,690.860229 
	C429.878357,697.669495 426.639160,704.429993 423.338715,711.158081 
	C413.269440,731.684937 402.181305,751.776672 393.279053,772.795654 
	C380.984619,801.824158 369.805267,831.358276 359.147949,861.034790 
	C352.345428,879.977112 347.366180,899.573364 341.541351,918.867920 
	C332.447144,948.992188 325.450073,979.485657 324.966888,1011.161133 
	C324.913147,1014.684937 323.710236,1017.098328 319.401184,1015.189270 
	C316.288269,1013.810120 312.872833,1013.026428 309.920013,1011.386902 
	C281.686676,995.710938 253.409363,980.285217 227.129395,961.166138 
	C203.223358,943.774048 179.968842,925.836243 159.395554,904.648438 
	C147.084137,891.969299 134.963257,878.989197 123.962791,865.183472 
	C111.249817,849.228577 99.416481,832.516052 88.057480,815.558899 
	C80.539528,804.335876 74.095024,792.324829 67.941719,780.272522 
	C58.520149,761.818787 49.059734,743.325500 40.945862,724.282227 
	C34.331963,708.759583 29.301310,692.520752 24.264883,676.382141 
	C20.883764,665.547729 18.419683,654.396545 16.084705,643.273926 
	C13.171761,629.398132 10.744461,615.418396 8.244672,601.458923 
	C7.005204,594.537415 5.672321,587.594299 5.090357,580.601990 
	C4.089979,568.582458 3.681756,556.514343 2.887709,544.475647 
	C2.830789,543.612671 1.655374,542.823486 1.000008,542.000000 
	C1.000000,526.979126 1.000000,511.958221 1.362101,496.791595 
	C2.147396,495.453918 2.836897,494.287109 2.952280,493.066040 
	C4.019604,481.771088 4.466890,470.390594 6.105219,459.182709 
	C8.654401,441.743744 11.873360,424.398376 15.027466,407.053162 
	C19.231928,383.931854 26.571171,361.688812 35.087132,339.874451 
	C39.760853,327.902313 45.431519,316.295197 51.083076,304.733887 
	C63.125896,280.098053 75.412979,255.542374 92.128487,233.634857 
	C107.725975,213.192642 123.282455,192.678207 139.845306,173.028625 
	C150.060516,160.909653 161.864517,150.072556 173.437897,139.172455 
	C184.240433,128.998352 195.175354,118.840439 206.944229,109.842354 
	C232.372513,90.400742 259.290436,73.260384 288.000366,58.867561 
	C315.914429,44.873714 344.961761,33.905025 374.805115,25.171179 
	C395.245575,19.189148 416.070618,14.275702 436.984924,10.237047 
	C453.362213,7.074499 470.124786,5.844019 486.747742,4.046705 
	C493.638947,3.301609 500.618439,3.401493 507.542450,2.903979 
	C508.734436,2.818333 509.849426,1.661834 511.000000,0.999998 
	C516.688049,1.000000 522.376038,1.000000 528.382568,1.278782 
	C529.134033,1.371707 529.567017,1.185851 530.000000,0.999998 
M439.055450,278.297272 
	C441.556030,281.544281 443.860199,284.967438 446.588959,288.009827 
	C464.699371,308.201904 488.499786,316.166748 514.520020,317.651581 
	C523.523621,318.165375 532.846802,315.055542 541.867188,312.934235 
	C571.477173,305.970978 598.807678,278.976868 603.305603,245.712296 
	C604.953857,233.522125 604.556885,222.080460 601.230164,210.372604 
	C592.752380,180.535873 574.148071,160.357864 544.535767,151.027512 
	C530.138489,146.491165 515.382935,146.594986 500.289825,148.728897 
	C483.848816,151.053375 470.217560,158.163940 457.958984,168.619629 
	C437.153625,186.365204 429.804352,210.345551 428.197632,236.373901 
	C427.296997,250.964523 431.407227,264.858124 439.055450,278.297272 
z"/>
<path fill="#000000" opacity="0.000000" stroke="none" 
	d="
M1.000008,542.468628 
	C1.655374,542.823486 2.830789,543.612671 2.887709,544.475647 
	C3.681756,556.514343 4.089979,568.582458 5.090357,580.601990 
	C5.672321,587.594299 7.005204,594.537415 8.244672,601.458923 
	C10.744461,615.418396 13.171761,629.398132 16.084705,643.273926 
	C18.419683,654.396545 20.883764,665.547729 24.264883,676.382141 
	C29.301310,692.520752 34.331963,708.759583 40.945862,724.282227 
	C49.059734,743.325500 58.520149,761.818787 67.941719,780.272522 
	C74.095024,792.324829 80.539528,804.335876 88.057480,815.558899 
	C99.416481,832.516052 111.249817,849.228577 123.962791,865.183472 
	C134.963257,878.989197 147.084137,891.969299 159.395554,904.648438 
	C179.968842,925.836243 203.223358,943.774048 227.129395,961.166138 
	C253.409363,980.285217 281.686676,995.710938 309.920013,1011.386902 
	C312.872833,1013.026428 316.288269,1013.810120 319.401184,1015.189270 
	C323.710236,1017.098328 324.913147,1014.684937 324.966888,1011.161133 
	C325.450073,979.485657 332.447144,948.992188 341.541351,918.867920 
	C347.366180,899.573364 352.345428,879.977112 359.147949,861.034790 
	C369.805267,831.358276 380.984619,801.824158 393.279053,772.795654 
	C402.181305,751.776672 413.269440,731.684937 423.338715,711.158081 
	C426.639160,704.429993 429.878357,697.669495 433.007141,690.860229 
	C437.114441,681.921265 434.764252,672.597046 433.769806,663.584106 
	C432.594666,652.933167 430.616333,642.271240 427.840515,631.921448 
	C424.308411,618.751709 420.378448,605.577026 415.143280,593.020203 
	C412.273743,586.137451 406.788757,580.148499 401.735626,574.415283 
	C392.314484,563.726257 383.019958,552.764160 372.423706,543.316528 
	C361.223907,533.330688 348.574280,524.969727 336.545319,515.915771 
	C328.781830,510.072235 319.968536,509.657349 311.180756,512.159912 
	C291.703644,517.706543 273.517578,514.357605 255.445724,506.239075 
	C234.383575,496.777283 215.621246,484.222870 199.949982,467.297699 
	C192.648636,459.412170 187.081497,450.083435 186.361130,439.204651 
	C185.939987,432.844330 187.997452,426.294586 189.124496,419.862396 
	C191.347549,407.175293 193.305145,394.421631 196.141235,381.869202 
	C197.918854,374.001556 200.411575,366.134766 203.779831,358.818329 
	C212.718445,339.402130 221.401352,319.916107 227.245972,299.307098 
	C230.350174,288.361176 233.240875,277.350830 236.000534,266.312714 
	C237.359360,260.877625 241.714752,258.684814 245.828049,256.046295 
	C262.152039,245.575287 280.358795,239.852097 299.104034,236.214066 
	C324.769653,231.232956 338.447845,249.483322 339.960968,270.035431 
	C340.620544,278.994385 339.054504,287.739594 334.651001,295.665588 
	C330.316772,303.466888 323.802460,308.234131 314.470428,307.963684 
	C310.363770,307.844666 306.158203,306.612518 302.196625,307.208710 
	C297.689880,307.886963 292.547882,308.995758 289.183258,311.750793 
	C278.520325,320.481903 270.569183,331.137207 269.930084,345.800323 
	C269.434143,357.178345 267.674377,368.598572 268.304962,379.897980 
	C268.817841,389.088165 267.517181,398.671661 271.614807,407.615936 
	C272.697296,409.978790 271.805267,413.202515 272.038879,416.012787 
	C272.205200,418.013947 272.738281,419.984650 273.107727,421.968964 
	C273.548248,422.091461 273.988770,422.213989 274.429321,422.336487 
	C276.261139,419.759857 277.837646,416.947601 279.964630,414.643433 
	C299.281830,393.717346 321.718933,377.685822 348.793182,367.756714 
	C373.644684,358.642731 399.131653,357.888947 424.826935,359.212891 
	C445.795685,360.293274 466.357758,364.607208 484.872925,375.140625 
	C494.208679,380.451813 502.751068,387.160431 511.634827,393.262421 
	C521.372070,399.950562 518.381897,399.688507 528.748657,392.701019 
	C538.489380,386.135468 547.612183,378.507721 557.833740,372.838043 
	C570.438049,365.846741 584.364258,362.049316 598.884460,360.993408 
	C607.915405,360.336670 616.944336,359.153259 625.977478,359.121033 
	C649.854736,359.035797 672.951416,363.986328 694.276978,374.422089 
	C714.177795,384.160583 733.139343,395.834015 752.403748,406.849121 
	C759.502686,410.908173 765.380798,416.306152 767.921509,424.510101 
	C768.108276,425.113007 768.456360,425.686249 768.827759,426.202423 
	C768.995117,426.434967 769.404663,426.493256 770.363159,426.932556 
	C770.717468,424.222748 770.782104,421.656525 771.412231,419.237579 
	C776.243774,400.688354 778.885742,381.770477 777.773438,362.702606 
	C776.857117,346.996124 773.822754,331.308136 761.865540,319.558197 
	C756.175232,313.966492 749.770020,310.177795 740.729065,309.622803 
	C724.764709,308.642822 718.153870,303.555664 712.507446,285.631989 
	C706.975769,268.072388 713.825439,252.177017 728.584534,241.972015 
	C735.604553,237.118118 743.373169,237.531158 751.303284,238.998093 
	C770.907349,242.624496 789.054260,250.049820 806.316284,259.834534 
	C810.409668,262.154785 812.140625,265.480896 813.355957,270.282684 
	C817.182190,285.399353 822.121155,300.233459 826.586426,315.189728 
	C828.441772,321.404114 829.523804,327.949005 832.151123,333.808380 
	C835.530579,341.345001 840.138306,348.327850 844.166748,355.577148 
	C852.338257,370.282196 856.209473,386.112091 857.087952,402.870758 
	C857.638428,413.371490 858.998779,423.830750 860.035706,434.304688 
	C861.236755,446.436981 856.090881,456.486633 848.890198,465.402435 
	C838.290283,478.526978 826.293762,490.216461 811.231140,498.411560 
	C797.731079,505.756592 783.841614,511.878876 768.470459,513.983765 
	C762.955750,514.738953 757.428650,515.450195 751.884888,515.917542 
	C750.169983,516.062134 748.262146,515.625793 746.646301,514.960754 
	C735.680847,510.447693 725.402100,513.204285 716.446899,519.369202 
	C706.610901,526.140503 697.760071,534.348938 688.526123,541.987000 
	C675.223999,552.990051 661.906921,563.976868 648.754517,575.156860 
	C647.044678,576.610291 645.521301,579.058228 645.197632,581.236572 
	C643.563171,592.239136 641.860229,603.271484 641.112244,614.356201 
	C639.998657,630.859131 640.003235,647.437866 638.872314,663.939087 
	C638.195129,673.819946 641.360779,682.135925 646.065369,690.456543 
	C657.551147,710.770081 668.777161,731.232727 679.914551,751.740234 
	C686.538574,763.937195 693.365845,776.073914 699.106567,788.690491 
	C713.078918,819.397888 726.450806,850.378235 740.102356,881.231934 
	C751.725708,907.501587 758.889343,935.247131 766.944946,962.684265 
	C769.826538,972.498962 771.860596,982.578979 773.904724,992.614685 
	C774.658142,996.313293 776.596924,995.863281 778.692322,994.690430 
	C788.916382,988.967957 799.433472,983.652588 809.125244,977.122192 
	C824.314270,966.887817 839.141357,956.078857 853.709167,944.971924 
	C865.069336,936.310669 876.154480,927.213257 886.714294,917.598633 
	C897.237610,908.017029 907.391846,897.942871 916.903931,887.362000 
	C926.766907,876.390808 935.917969,864.746521 944.912048,853.036926 
	C953.378845,842.013794 961.537598,830.725525 969.298462,819.194824 
	C986.282837,793.960083 1000.031433,766.973755 1012.524597,739.251770 
	C1023.206177,715.549316 1031.162964,690.995850 1037.461304,665.888489 
	C1042.724121,644.908813 1047.709839,623.826965 1051.766479,602.589478 
	C1054.219727,589.745483 1054.998535,576.542114 1055.929077,563.457458 
	C1056.973145,548.776794 1058.126099,534.029724 1057.786499,519.344971 
	C1057.426147,503.751099 1055.537720,488.179779 1053.996094,472.630402 
	C1052.948120,462.060150 1051.590454,451.505951 1049.916138,441.017212 
	C1048.636963,433.004730 1046.778564,425.074921 1044.938110,417.164124 
	C1042.066162,404.820190 1039.526367,392.363007 1035.888916,380.240875 
	C1028.789307,356.580353 1021.904358,332.831207 1011.204834,310.399536 
	C998.612488,283.999390 984.643921,258.370422 967.951965,234.368958 
	C956.657410,218.128525 944.404114,202.543030 932.285339,186.892548 
	C926.198181,179.031540 919.915955,171.217819 912.904114,164.199844 
	C901.111938,152.397232 888.923767,140.956268 876.419739,129.909271 
	C865.594910,120.345848 854.634766,110.765755 842.774597,102.584473 
	C825.614075,90.746956 809.014343,77.957878 789.820984,69.194061 
	C776.638428,63.174778 764.207520,55.474918 750.922363,49.723473 
	C734.218628,42.492073 717.208984,35.802704 699.921265,30.129103 
	C680.950989,23.903334 661.642334,18.571062 642.235535,13.861200 
	C629.085083,10.669723 615.566284,8.775230 602.111755,7.116352 
	C586.939880,5.245743 571.653870,4.303835 556.423584,2.892848 
	C555.703247,2.826112 555.041504,2.127085 554.676270,1.361257 
	C724.309875,1.000000 893.619812,1.000000 1062.964844,1.000000 
	C1062.964844,354.927521 1062.964844,708.855042 1062.964844,1062.891357 
	C709.121521,1062.891357 355.242981,1062.891357 1.000000,1062.891357 
	C1.000000,889.645935 1.000000,716.291626 1.000008,542.468628 
M656.588074,1044.002319 
	C657.571289,1043.902222 658.607727,1043.969849 659.529785,1043.677246 
	C675.301453,1038.671143 691.065918,1033.641968 706.817810,1028.574219 
	C727.095398,1022.050293 746.032654,1012.618042 764.352295,1001.876709 
	C772.700745,996.981689 772.681396,996.913269 767.951660,988.747681 
	C767.133423,987.335022 766.179199,985.990540 765.188782,984.689941 
	C754.481628,970.629333 743.883057,956.483398 732.994568,942.564392 
	C723.380859,930.274902 713.261536,918.380127 703.681763,906.065063 
	C689.512085,887.849487 676.256348,868.883545 661.427429,851.231750 
	C647.752197,834.953186 632.941223,819.557495 617.839050,804.570496 
	C604.731140,791.562500 590.812439,779.318298 576.681274,767.414062 
	C567.712280,759.858398 557.726746,753.503174 548.135498,746.696472 
	C545.558472,744.867493 542.680725,744.900208 539.986389,746.551270 
	C524.708740,755.912598 509.979126,766.104858 497.562592,779.083252 
	C480.515137,796.902039 463.910370,815.147095 447.259125,833.340576 
	C440.809113,840.387939 434.205963,847.399292 428.621857,855.114136 
	C415.330139,873.477722 401.914825,891.815552 389.824554,910.968689 
	C374.681976,934.957458 360.585602,959.620300 346.504059,984.258789 
	C340.380951,994.972473 335.419983,1006.350403 329.632751,1018.028870 
	C329.907562,1018.235962 330.937317,1019.316162 332.196564,1019.908386 
	C337.797180,1022.542236 343.360138,1025.304932 349.127594,1027.525269 
	C361.255310,1032.193848 373.234406,1037.604492 385.762115,1040.797729 
	C406.243927,1046.018066 427.053833,1050.037598 447.843353,1053.934204 
	C461.653717,1056.522827 475.617859,1058.612671 489.608551,1059.823975 
	C502.802277,1060.966431 516.120605,1060.919922 529.384460,1060.928467 
	C541.652344,1060.936401 553.977661,1060.944336 566.173706,1059.821777 
	C580.153076,1058.534790 594.089417,1056.399902 607.913635,1053.907715 
	C623.926208,1051.020996 639.796387,1047.344482 656.588074,1044.002319 
M454.640167,530.932251 
	C421.522247,515.340271 395.465302,491.208160 372.536377,462.687775 
	C371.623383,464.828369 371.056885,466.791504 371.711304,468.178650 
	C378.031128,481.574341 383.745514,495.346863 391.196320,508.098206 
	C405.417816,532.436951 424.932465,551.205811 451.490417,562.275818 
	C470.061676,570.016785 489.166473,574.281555 509.202606,573.922424 
	C523.914368,573.658630 538.665955,573.229309 553.300110,571.831238 
	C563.785583,570.829590 574.473083,569.215332 584.429382,565.931030 
	C610.505249,557.329224 632.828857,542.714050 651.501831,522.249023 
	C663.740906,508.835388 672.804443,493.795593 679.373230,477.065247 
	C680.863464,473.269775 682.039062,469.350739 683.359497,465.488617 
	C682.800903,465.113708 682.242310,464.738831 681.683716,464.363953 
	C679.447571,466.290497 677.045532,468.056854 675.003906,470.171204 
	C665.961609,479.535736 658.145935,490.528107 647.819336,498.119568 
	C624.216919,515.470642 599.907959,532.040222 570.878357,539.709106 
	C558.014648,543.107361 545.092651,546.048340 531.774536,545.889038 
	C520.406799,545.753174 508.997192,545.145569 497.701965,543.886597 
	C482.883240,542.234985 468.772217,537.732788 454.640167,530.932251 
z"/>
<path fill="#000000" opacity="0.000000" stroke="none" 
	d="
M510.531342,0.999998 
	C509.849426,1.661834 508.734436,2.818333 507.542450,2.903979 
	C500.618439,3.401493 493.638947,3.301609 486.747742,4.046705 
	C470.124786,5.844019 453.362213,7.074499 436.984924,10.237047 
	C416.070618,14.275702 395.245575,19.189148 374.805115,25.171179 
	C344.961761,33.905025 315.914429,44.873714 288.000366,58.867561 
	C259.290436,73.260384 232.372513,90.400742 206.944229,109.842354 
	C195.175354,118.840439 184.240433,128.998352 173.437897,139.172455 
	C161.864517,150.072556 150.060516,160.909653 139.845306,173.028625 
	C123.282455,192.678207 107.725975,213.192642 92.128487,233.634857 
	C75.412979,255.542374 63.125896,280.098053 51.083076,304.733887 
	C45.431519,316.295197 39.760853,327.902313 35.087132,339.874451 
	C26.571171,361.688812 19.231928,383.931854 15.027466,407.053162 
	C11.873360,424.398376 8.654401,441.743744 6.105219,459.182709 
	C4.466890,470.390594 4.019604,481.771088 2.952280,493.066040 
	C2.836897,494.287109 2.147396,495.453918 1.362101,496.322937 
	C1.000000,331.071838 1.000000,166.143646 1.000000,1.000000 
	C170.687500,1.000000 340.375092,1.000000 510.531342,0.999998 
z"/>
<path fill="#000000" opacity="0.000000" stroke="none" 
	d="
M438.990845,277.930664 
	C431.407227,264.858124 427.296997,250.964523 428.197632,236.373901 
	C429.804352,210.345551 437.153625,186.365204 457.958984,168.619629 
	C470.217560,158.163940 483.848816,151.053375 500.289825,148.728897 
	C515.382935,146.594986 530.138489,146.491165 544.535767,151.027512 
	C574.148071,160.357864 592.752380,180.535873 601.230164,210.372604 
	C604.556885,222.080460 604.953857,233.522125 603.305603,245.712296 
	C598.807678,278.976868 571.477173,305.970978 541.867188,312.934235 
	C532.846802,315.055542 523.523621,318.165375 514.520020,317.651581 
	C488.499786,316.166748 464.699371,308.201904 446.588959,288.009827 
	C443.860199,284.967438 441.556030,281.544281 438.990845,277.930664 
z"/>
<path fill="#B65E11" opacity="1.000000" stroke="none" 
	d="
M656.158203,1044.006592 
	C639.796387,1047.344482 623.926208,1051.020996 607.913635,1053.907715 
	C594.089417,1056.399902 580.153076,1058.534790 566.173706,1059.821777 
	C553.977661,1060.944336 541.652344,1060.936401 529.384460,1060.928467 
	C516.120605,1060.919922 502.802277,1060.966431 489.608551,1059.823975 
	C475.617859,1058.612671 461.653717,1056.522827 447.843353,1053.934204 
	C427.053833,1050.037598 406.243927,1046.018066 385.762115,1040.797729 
	C373.234406,1037.604492 361.255310,1032.193848 349.127594,1027.525269 
	C343.360138,1025.304932 337.797180,1022.542236 332.196564,1019.908386 
	C330.937317,1019.316162 329.907562,1018.235962 329.632751,1018.028870 
	C335.419983,1006.350403 340.380951,994.972473 346.504059,984.258789 
	C360.585602,959.620300 374.681976,934.957458 389.824554,910.968689 
	C401.914825,891.815552 415.330139,873.477722 428.621857,855.114136 
	C434.205963,847.399292 440.809113,840.387939 447.259125,833.340576 
	C463.910370,815.147095 480.515137,796.902039 497.562592,779.083252 
	C509.979126,766.104858 524.708740,755.912598 539.986389,746.551270 
	C542.680725,744.900208 545.558472,744.867493 548.135498,746.696472 
	C557.726746,753.503174 567.712280,759.858398 576.681274,767.414062 
	C590.812439,779.318298 604.731140,791.562500 617.839050,804.570496 
	C632.941223,819.557495 647.752197,834.953186 661.427429,851.231750 
	C676.256348,868.883545 689.512085,887.849487 703.681763,906.065063 
	C713.261536,918.380127 723.380859,930.274902 732.994568,942.564392 
	C743.883057,956.483398 754.481628,970.629333 765.188782,984.689941 
	C766.179199,985.990540 767.133423,987.335022 767.951660,988.747681 
	C772.681396,996.913269 772.700745,996.981689 764.352295,1001.876709 
	C746.032654,1012.618042 727.095398,1022.050293 706.817810,1028.574219 
	C691.065918,1033.641968 675.301453,1038.671143 659.529785,1043.677246 
	C658.607727,1043.969849 657.571289,1043.902222 656.158203,1044.006592 
z"/>
<path fill="#B65E11" opacity="1.000000" stroke="none" 
	d="
M455.016602,531.000366 
	C468.772217,537.732788 482.883240,542.234985 497.701965,543.886597 
	C508.997192,545.145569 520.406799,545.753174 531.774536,545.889038 
	C545.092651,546.048340 558.014648,543.107361 570.878357,539.709106 
	C599.907959,532.040222 624.216919,515.470642 647.819336,498.119568 
	C658.145935,490.528107 665.961609,479.535736 675.003906,470.171204 
	C677.045532,468.056854 679.447571,466.290497 681.683716,464.363953 
	C682.242310,464.738831 682.800903,465.113708 683.359497,465.488617 
	C682.039062,469.350739 680.863464,473.269775 679.373230,477.065247 
	C672.804443,493.795593 663.740906,508.835388 651.501831,522.249023 
	C632.828857,542.714050 610.505249,557.329224 584.429382,565.931030 
	C574.473083,569.215332 563.785583,570.829590 553.300110,571.831238 
	C538.665955,573.229309 523.914368,573.658630 509.202606,573.922424 
	C489.166473,574.281555 470.061676,570.016785 451.490417,562.275818 
	C424.932465,551.205811 405.417816,532.436951 391.196320,508.098206 
	C383.745514,495.346863 378.031128,481.574341 371.711304,468.178650 
	C371.056885,466.791504 371.623383,464.828369 372.536377,462.687775 
	C395.465302,491.208160 421.522247,515.340271 455.016602,531.000366 
z"/>
</svg>